<svg xmlns="http://www.w3.org/2000/svg" viewBox="0 0 1200 720" role="img" aria-label="Revamp Prithvi Greens rendering">
  <defs>
    <linearGradient id="sky" x1="0" x2="0" y1="0" y2="1">
      <stop offset="0" stop-color="#F5F7FA"/>
      <stop offset=".7" stop-color="#ffffff"/>
    </linearGradient>
    <linearGradient id="gold" x1="0" x2="1">
      <stop offset="0" stop-color="#C79B3B"/>
      <stop offset="1" stop-color="#F2D487"/>
    </linearGradient>
  </defs>
  <rect width="1200" height="720" fill="url(#sky)"/>
  <circle cx="656" cy="130" r="58" fill="url(#gold)" opacity=".55"/>
  <path d="M0 585c150-38 260-44 400-12s250 27 400-10 252-20 400 24v133H0Z" fill="#dfe8ef"/>
  <rect x="88" y="172" width="86" height="388" rx="8" fill="#0A2342" opacity="0.92"/><path d="M100 180h62" stroke="#ffffff" stroke-opacity=".28" stroke-width="2"/><path d="M100 210h62" stroke="#ffffff" stroke-opacity=".28" stroke-width="2"/><path d="M100 240h62" stroke="#ffffff" stroke-opacity=".28" stroke-width="2"/><path d="M100 270h62" stroke="#ffffff" stroke-opacity=".28" stroke-width="2"/><path d="M100 300h62" stroke="#ffffff" stroke-opacity=".28" stroke-width="2"/><path d="M100 330h62" stroke="#ffffff" stroke-opacity=".28" stroke-width="2"/><path d="M100 360h62" stroke="#ffffff" stroke-opacity=".28" stroke-width="2"/><path d="M100 390h62" stroke="#ffffff" stroke-opacity=".28" stroke-width="2"/><path d="M100 420h62" stroke="#ffffff" stroke-opacity=".28" stroke-width="2"/><path d="M100 450h62" stroke="#ffffff" stroke-opacity=".28" stroke-width="2"/><path d="M100 480h62" stroke="#ffffff" stroke-opacity=".28" stroke-width="2"/><path d="M100 510h62" stroke="#ffffff" stroke-opacity=".28" stroke-width="2"/><path d="M100 540h62" stroke="#ffffff" stroke-opacity=".28" stroke-width="2"/><rect x="162" y="192" width="8" height="348" fill="#C79B3B" opacity=".65"/><rect x="228" y="131" width="108" height="429" rx="8" fill="#1C4E9E" opacity="0.84"/><path d="M240 139h84" stroke="#ffffff" stroke-opacity=".28" stroke-width="2"/><path d="M240 169h84" stroke="#ffffff" stroke-opacity=".28" stroke-width="2"/><path d="M240 199h84" stroke="#ffffff" stroke-opacity=".28" stroke-width="2"/><path d="M240 229h84" stroke="#ffffff" stroke-opacity=".28" stroke-width="2"/><path d="M240 259h84" stroke="#ffffff" stroke-opacity=".28" stroke-width="2"/><path d="M240 289h84" stroke="#ffffff" stroke-opacity=".28" stroke-width="2"/><path d="M240 319h84" stroke="#ffffff" stroke-opacity=".28" stroke-width="2"/><path d="M240 349h84" stroke="#ffffff" stroke-opacity=".28" stroke-width="2"/><path d="M240 379h84" stroke="#ffffff" stroke-opacity=".28" stroke-width="2"/><path d="M240 409h84" stroke="#ffffff" stroke-opacity=".28" stroke-width="2"/><path d="M240 439h84" stroke="#ffffff" stroke-opacity=".28" stroke-width="2"/><path d="M240 469h84" stroke="#ffffff" stroke-opacity=".28" stroke-width="2"/><path d="M240 499h84" stroke="#ffffff" stroke-opacity=".28" stroke-width="2"/><path d="M240 529h84" stroke="#ffffff" stroke-opacity=".28" stroke-width="2"/><rect x="368" y="300" width="130" height="260" rx="8" fill="#0A2342" opacity="0.92"/><path d="M380 308h106" stroke="#ffffff" stroke-opacity=".28" stroke-width="2"/><path d="M380 338h106" stroke="#ffffff" stroke-opacity=".28" stroke-width="2"/><path d="M380 368h106" stroke="#ffffff" stroke-opacity=".28" stroke-width="2"/><path d="M380 398h106" stroke="#ffffff" stroke-opacity=".28" stroke-width="2"/><path d="M380 428h106" stroke="#ffffff" stroke-opacity=".28" stroke-width="2"/><path d="M380 458h106" stroke="#ffffff" stroke-opacity=".28" stroke-width="2"/><path d="M380 488h106" stroke="#ffffff" stroke-opacity=".28" stroke-width="2"/><path d="M380 518h106" stroke="#ffffff" stroke-opacity=".28" stroke-width="2"/><rect x="486" y="320" width="8" height="220" fill="#C79B3B" opacity=".65"/><rect x="508" y="259" width="86" height="301" rx="8" fill="#1C4E9E" opacity="0.84"/><path d="M520 267h62" stroke="#ffffff" stroke-opacity=".28" stroke-width="2"/><path d="M520 297h62" stroke="#ffffff" stroke-opacity=".28" stroke-width="2"/><path d="M520 327h62" stroke="#ffffff" stroke-opacity=".28" stroke-width="2"/><path d="M520 357h62" stroke="#ffffff" stroke-opacity=".28" stroke-width="2"/><path d="M520 387h62" stroke="#ffffff" stroke-opacity=".28" stroke-width="2"/><path d="M520 417h62" stroke="#ffffff" stroke-opacity=".28" stroke-width="2"/><path d="M520 447h62" stroke="#ffffff" stroke-opacity=".28" stroke-width="2"/><path d="M520 477h62" stroke="#ffffff" stroke-opacity=".28" stroke-width="2"/><path d="M520 507h62" stroke="#ffffff" stroke-opacity=".28" stroke-width="2"/><path d="M520 537h62" stroke="#ffffff" stroke-opacity=".28" stroke-width="2"/><rect x="648" y="218" width="108" height="342" rx="8" fill="#0A2342" opacity="0.92"/><path d="M660 226h84" stroke="#ffffff" stroke-opacity=".28" stroke-width="2"/><path d="M660 256h84" stroke="#ffffff" stroke-opacity=".28" stroke-width="2"/><path d="M660 286h84" stroke="#ffffff" stroke-opacity=".28" stroke-width="2"/><path d="M660 316h84" stroke="#ffffff" stroke-opacity=".28" stroke-width="2"/><path d="M660 346h84" stroke="#ffffff" stroke-opacity=".28" stroke-width="2"/><path d="M660 376h84" stroke="#ffffff" stroke-opacity=".28" stroke-width="2"/><path d="M660 406h84" stroke="#ffffff" stroke-opacity=".28" stroke-width="2"/><path d="M660 436h84" stroke="#ffffff" stroke-opacity=".28" stroke-width="2"/><path d="M660 466h84" stroke="#ffffff" stroke-opacity=".28" stroke-width="2"/><path d="M660 496h84" stroke="#ffffff" stroke-opacity=".28" stroke-width="2"/><path d="M660 526h84" stroke="#ffffff" stroke-opacity=".28" stroke-width="2"/><rect x="744" y="238" width="8" height="302" fill="#C79B3B" opacity=".65"/><rect x="788" y="177" width="130" height="383" rx="8" fill="#1C4E9E" opacity="0.84"/><path d="M800 185h106" stroke="#ffffff" stroke-opacity=".28" stroke-width="2"/><path d="M800 215h106" stroke="#ffffff" stroke-opacity=".28" stroke-width="2"/><path d="M800 245h106" stroke="#ffffff" stroke-opacity=".28" stroke-width="2"/><path d="M800 275h106" stroke="#ffffff" stroke-opacity=".28" stroke-width="2"/><path d="M800 305h106" stroke="#ffffff" stroke-opacity=".28" stroke-width="2"/><path d="M800 335h106" stroke="#ffffff" stroke-opacity=".28" stroke-width="2"/><path d="M800 365h106" stroke="#ffffff" stroke-opacity=".28" stroke-width="2"/><path d="M800 395h106" stroke="#ffffff" stroke-opacity=".28" stroke-width="2"/><path d="M800 425h106" stroke="#ffffff" stroke-opacity=".28" stroke-width="2"/><path d="M800 455h106" stroke="#ffffff" stroke-opacity=".28" stroke-width="2"/><path d="M800 485h106" stroke="#ffffff" stroke-opacity=".28" stroke-width="2"/><path d="M800 515h106" stroke="#ffffff" stroke-opacity=".28" stroke-width="2"/><path d="M800 545h106" stroke="#ffffff" stroke-opacity=".28" stroke-width="2"/><rect x="928" y="136" width="86" height="424" rx="8" fill="#0A2342" opacity="0.92"/><path d="M940 144h62" stroke="#ffffff" stroke-opacity=".28" stroke-width="2"/><path d="M940 174h62" stroke="#ffffff" stroke-opacity=".28" stroke-width="2"/><path d="M940 204h62" stroke="#ffffff" stroke-opacity=".28" stroke-width="2"/><path d="M940 234h62" stroke="#ffffff" stroke-opacity=".28" stroke-width="2"/><path d="M940 264h62" stroke="#ffffff" stroke-opacity=".28" stroke-width="2"/><path d="M940 294h62" stroke="#ffffff" stroke-opacity=".28" stroke-width="2"/><path d="M940 324h62" stroke="#ffffff" stroke-opacity=".28" stroke-width="2"/><path d="M940 354h62" stroke="#ffffff" stroke-opacity=".28" stroke-width="2"/><path d="M940 384h62" stroke="#ffffff" stroke-opacity=".28" stroke-width="2"/><path d="M940 414h62" stroke="#ffffff" stroke-opacity=".28" stroke-width="2"/><path d="M940 444h62" stroke="#ffffff" stroke-opacity=".28" stroke-width="2"/><path d="M940 474h62" stroke="#ffffff" stroke-opacity=".28" stroke-width="2"/><path d="M940 504h62" stroke="#ffffff" stroke-opacity=".28" stroke-width="2"/><path d="M940 534h62" stroke="#ffffff" stroke-opacity=".28" stroke-width="2"/><rect x="1002" y="156" width="8" height="384" fill="#C79B3B" opacity=".65"/>
  <rect x="0" y="584" width="1200" height="136" fill="#12263f"/>
  <path d="M0 604h1200" stroke="#C79B3B" stroke-width="5" opacity=".8"/>
  <path d="M120 644c130-36 250-30 360 0s238 36 366 0 200-38 306-10" fill="none" stroke="#2E8B57" stroke-width="18" stroke-linecap="round" opacity=".75"/>
  <rect x="56" y="44" width="420" height="86" rx="8" fill="rgba(10,35,66,.82)"/>
  <text x="82" y="82" font-family="Inter, Arial, sans-serif" font-size="22" font-weight="800" fill="#fff">Pune / RESIDENTIAL</text>
  <text x="82" y="112" font-family="Inter, Arial, sans-serif" font-size="18" fill="#C79B3B">Completed</text>
</svg>
