<svg xmlns="http://www.w3.org/2000/svg" viewBox="0 0 1200 720" role="img" aria-label="Revamp Coromandel Bay rendering">
  <defs>
    <linearGradient id="sky" x1="0" x2="0" y1="0" y2="1">
      <stop offset="0" stop-color="#EEF1F4"/>
      <stop offset=".7" stop-color="#ffffff"/>
    </linearGradient>
    <linearGradient id="gold" x1="0" x2="1">
      <stop offset="0" stop-color="#D5A84D"/>
      <stop offset="1" stop-color="#F2D487"/>
    </linearGradient>
  </defs>
  <rect width="1200" height="720" fill="url(#sky)"/>
  <circle cx="377" cy="130" r="58" fill="url(#gold)" opacity=".55"/>
  <path d="M0 585c150-38 260-44 400-12s250 27 400-10 252-20 400 24v133H0Z" fill="#dfe8ef"/>
  <rect x="88" y="169" width="86" height="391" rx="8" fill="#101827" opacity="0.92"/><path d="M100 177h62" stroke="#ffffff" stroke-opacity=".28" stroke-width="2"/><path d="M100 207h62" stroke="#ffffff" stroke-opacity=".28" stroke-width="2"/><path d="M100 237h62" stroke="#ffffff" stroke-opacity=".28" stroke-width="2"/><path d="M100 267h62" stroke="#ffffff" stroke-opacity=".28" stroke-width="2"/><path d="M100 297h62" stroke="#ffffff" stroke-opacity=".28" stroke-width="2"/><path d="M100 327h62" stroke="#ffffff" stroke-opacity=".28" stroke-width="2"/><path d="M100 357h62" stroke="#ffffff" stroke-opacity=".28" stroke-width="2"/><path d="M100 387h62" stroke="#ffffff" stroke-opacity=".28" stroke-width="2"/><path d="M100 417h62" stroke="#ffffff" stroke-opacity=".28" stroke-width="2"/><path d="M100 447h62" stroke="#ffffff" stroke-opacity=".28" stroke-width="2"/><path d="M100 477h62" stroke="#ffffff" stroke-opacity=".28" stroke-width="2"/><path d="M100 507h62" stroke="#ffffff" stroke-opacity=".28" stroke-width="2"/><path d="M100 537h62" stroke="#ffffff" stroke-opacity=".28" stroke-width="2"/><rect x="162" y="189" width="8" height="351" fill="#D5A84D" opacity=".65"/><rect x="228" y="128" width="108" height="432" rx="8" fill="#375C7D" opacity="0.84"/><path d="M240 136h84" stroke="#ffffff" stroke-opacity=".28" stroke-width="2"/><path d="M240 166h84" stroke="#ffffff" stroke-opacity=".28" stroke-width="2"/><path d="M240 196h84" stroke="#ffffff" stroke-opacity=".28" stroke-width="2"/><path d="M240 226h84" stroke="#ffffff" stroke-opacity=".28" stroke-width="2"/><path d="M240 256h84" stroke="#ffffff" stroke-opacity=".28" stroke-width="2"/><path d="M240 286h84" stroke="#ffffff" stroke-opacity=".28" stroke-width="2"/><path d="M240 316h84" stroke="#ffffff" stroke-opacity=".28" stroke-width="2"/><path d="M240 346h84" stroke="#ffffff" stroke-opacity=".28" stroke-width="2"/><path d="M240 376h84" stroke="#ffffff" stroke-opacity=".28" stroke-width="2"/><path d="M240 406h84" stroke="#ffffff" stroke-opacity=".28" stroke-width="2"/><path d="M240 436h84" stroke="#ffffff" stroke-opacity=".28" stroke-width="2"/><path d="M240 466h84" stroke="#ffffff" stroke-opacity=".28" stroke-width="2"/><path d="M240 496h84" stroke="#ffffff" stroke-opacity=".28" stroke-width="2"/><path d="M240 526h84" stroke="#ffffff" stroke-opacity=".28" stroke-width="2"/><rect x="368" y="297" width="130" height="263" rx="8" fill="#101827" opacity="0.92"/><path d="M380 305h106" stroke="#ffffff" stroke-opacity=".28" stroke-width="2"/><path d="M380 335h106" stroke="#ffffff" stroke-opacity=".28" stroke-width="2"/><path d="M380 365h106" stroke="#ffffff" stroke-opacity=".28" stroke-width="2"/><path d="M380 395h106" stroke="#ffffff" stroke-opacity=".28" stroke-width="2"/><path d="M380 425h106" stroke="#ffffff" stroke-opacity=".28" stroke-width="2"/><path d="M380 455h106" stroke="#ffffff" stroke-opacity=".28" stroke-width="2"/><path d="M380 485h106" stroke="#ffffff" stroke-opacity=".28" stroke-width="2"/><path d="M380 515h106" stroke="#ffffff" stroke-opacity=".28" stroke-width="2"/><path d="M380 545h106" stroke="#ffffff" stroke-opacity=".28" stroke-width="2"/><rect x="486" y="317" width="8" height="223" fill="#D5A84D" opacity=".65"/><rect x="508" y="256" width="86" height="304" rx="8" fill="#375C7D" opacity="0.84"/><path d="M520 264h62" stroke="#ffffff" stroke-opacity=".28" stroke-width="2"/><path d="M520 294h62" stroke="#ffffff" stroke-opacity=".28" stroke-width="2"/><path d="M520 324h62" stroke="#ffffff" stroke-opacity=".28" stroke-width="2"/><path d="M520 354h62" stroke="#ffffff" stroke-opacity=".28" stroke-width="2"/><path d="M520 384h62" stroke="#ffffff" stroke-opacity=".28" stroke-width="2"/><path d="M520 414h62" stroke="#ffffff" stroke-opacity=".28" stroke-width="2"/><path d="M520 444h62" stroke="#ffffff" stroke-opacity=".28" stroke-width="2"/><path d="M520 474h62" stroke="#ffffff" stroke-opacity=".28" stroke-width="2"/><path d="M520 504h62" stroke="#ffffff" stroke-opacity=".28" stroke-width="2"/><path d="M520 534h62" stroke="#ffffff" stroke-opacity=".28" stroke-width="2"/><rect x="648" y="215" width="108" height="345" rx="8" fill="#101827" opacity="0.92"/><path d="M660 223h84" stroke="#ffffff" stroke-opacity=".28" stroke-width="2"/><path d="M660 253h84" stroke="#ffffff" stroke-opacity=".28" stroke-width="2"/><path d="M660 283h84" stroke="#ffffff" stroke-opacity=".28" stroke-width="2"/><path d="M660 313h84" stroke="#ffffff" stroke-opacity=".28" stroke-width="2"/><path d="M660 343h84" stroke="#ffffff" stroke-opacity=".28" stroke-width="2"/><path d="M660 373h84" stroke="#ffffff" stroke-opacity=".28" stroke-width="2"/><path d="M660 403h84" stroke="#ffffff" stroke-opacity=".28" stroke-width="2"/><path d="M660 433h84" stroke="#ffffff" stroke-opacity=".28" stroke-width="2"/><path d="M660 463h84" stroke="#ffffff" stroke-opacity=".28" stroke-width="2"/><path d="M660 493h84" stroke="#ffffff" stroke-opacity=".28" stroke-width="2"/><path d="M660 523h84" stroke="#ffffff" stroke-opacity=".28" stroke-width="2"/><rect x="744" y="235" width="8" height="305" fill="#D5A84D" opacity=".65"/><rect x="788" y="174" width="130" height="386" rx="8" fill="#375C7D" opacity="0.84"/><path d="M800 182h106" stroke="#ffffff" stroke-opacity=".28" stroke-width="2"/><path d="M800 212h106" stroke="#ffffff" stroke-opacity=".28" stroke-width="2"/><path d="M800 242h106" stroke="#ffffff" stroke-opacity=".28" stroke-width="2"/><path d="M800 272h106" stroke="#ffffff" stroke-opacity=".28" stroke-width="2"/><path d="M800 302h106" stroke="#ffffff" stroke-opacity=".28" stroke-width="2"/><path d="M800 332h106" stroke="#ffffff" stroke-opacity=".28" stroke-width="2"/><path d="M800 362h106" stroke="#ffffff" stroke-opacity=".28" stroke-width="2"/><path d="M800 392h106" stroke="#ffffff" stroke-opacity=".28" stroke-width="2"/><path d="M800 422h106" stroke="#ffffff" stroke-opacity=".28" stroke-width="2"/><path d="M800 452h106" stroke="#ffffff" stroke-opacity=".28" stroke-width="2"/><path d="M800 482h106" stroke="#ffffff" stroke-opacity=".28" stroke-width="2"/><path d="M800 512h106" stroke="#ffffff" stroke-opacity=".28" stroke-width="2"/><path d="M800 542h106" stroke="#ffffff" stroke-opacity=".28" stroke-width="2"/><rect x="928" y="133" width="86" height="427" rx="8" fill="#101827" opacity="0.92"/><path d="M940 141h62" stroke="#ffffff" stroke-opacity=".28" stroke-width="2"/><path d="M940 171h62" stroke="#ffffff" stroke-opacity=".28" stroke-width="2"/><path d="M940 201h62" stroke="#ffffff" stroke-opacity=".28" stroke-width="2"/><path d="M940 231h62" stroke="#ffffff" stroke-opacity=".28" stroke-width="2"/><path d="M940 261h62" stroke="#ffffff" stroke-opacity=".28" stroke-width="2"/><path d="M940 291h62" stroke="#ffffff" stroke-opacity=".28" stroke-width="2"/><path d="M940 321h62" stroke="#ffffff" stroke-opacity=".28" stroke-width="2"/><path d="M940 351h62" stroke="#ffffff" stroke-opacity=".28" stroke-width="2"/><path d="M940 381h62" stroke="#ffffff" stroke-opacity=".28" stroke-width="2"/><path d="M940 411h62" stroke="#ffffff" stroke-opacity=".28" stroke-width="2"/><path d="M940 441h62" stroke="#ffffff" stroke-opacity=".28" stroke-width="2"/><path d="M940 471h62" stroke="#ffffff" stroke-opacity=".28" stroke-width="2"/><path d="M940 501h62" stroke="#ffffff" stroke-opacity=".28" stroke-width="2"/><path d="M940 531h62" stroke="#ffffff" stroke-opacity=".28" stroke-width="2"/><rect x="1002" y="153" width="8" height="387" fill="#D5A84D" opacity=".65"/>
  <rect x="0" y="584" width="1200" height="136" fill="#12263f"/>
  <path d="M0 604h1200" stroke="#D5A84D" stroke-width="5" opacity=".8"/>
  <path d="M120 644c130-36 250-30 360 0s238 36 366 0 200-38 306-10" fill="none" stroke="#2E8B57" stroke-width="18" stroke-linecap="round" opacity=".75"/>
  <rect x="56" y="44" width="420" height="86" rx="8" fill="rgba(10,35,66,.82)"/>
  <text x="82" y="82" font-family="Inter, Arial, sans-serif" font-size="22" font-weight="800" fill="#fff">Chennai / MIXED USE</text>
  <text x="82" y="112" font-family="Inter, Arial, sans-serif" font-size="18" fill="#D5A84D">Upcoming</text>
</svg>
